<svg id="Layer_1" data-name="Layer 1" xmlns="http://www.w3.org/2000/svg" xmlns:xlink="http://www.w3.org/1999/xlink" viewBox="0 0 332.4 140.06"><defs><style>.cls-1{fill:none;}.cls-2,.cls-3{fill:#a7a9ac;}.cls-3,.cls-59{fill-rule:evenodd;}.cls-4{clip-path:url(#clip-path);}.cls-5{fill:#6dc069;}.cls-6{fill:#6fbe67;}.cls-7{fill:#71bc65;}.cls-8{fill:#73bb64;}.cls-9{fill:#75bb62;}.cls-10{fill:#77ba61;}.cls-11{fill:#79b95f;}.cls-12{fill:#7bb85e;}.cls-13{fill:#7cb75d;}.cls-14{fill:#7eb65b;}.cls-15{fill:#80b55a;}.cls-16{fill:#81b458;}.cls-17{fill:#83b357;}.cls-18{fill:#84b355;}.cls-19{fill:#85b254;}.cls-20{fill:#86b152;}.cls-21{fill:#87b051;}.cls-22{fill:#88af4f;}.cls-23{fill:#89ae4e;}.cls-24{fill:#8aac4c;}.cls-25{fill:#8bab4b;}.cls-26{fill:#8caa49;}.cls-27{fill:#8ca948;}.cls-28{fill:#8da846;}.cls-29{fill:#8da745;}.cls-30{fill:#8ea643;}.cls-31{fill:#8ea442;}.cls-32{fill:#8fa340;}.cls-33{fill:#8fa23f;}.cls-34{fill:#8fa13d;}.cls-35{fill:#8f9f3c;}.cls-36{fill:#8f9e3a;}.cls-37{fill:#8f9d39;}.cls-38{fill:#8f9b37;}.cls-39{fill:#8f9a36;}.cls-40{fill:#8f9934;}.cls-41{fill:#8f9733;}.cls-42{fill:#8f9631;}.cls-43{fill:#8f9530;}.cls-44{fill:#8e932e;}.cls-45{fill:#8e922c;}.cls-46{fill:#8e902b;}.cls-47{fill:#8e8f29;}.cls-48{fill:#8d8e28;}.cls-49{fill:#8d8c26;}.cls-50{fill:#8c8b25;}.cls-51{fill:#8c8923;}.cls-52{fill:#8b8822;}.cls-53{fill:#8b8620;}.cls-54{fill:#8a851e;}.cls-55{fill:#8a841d;}.cls-56{fill:#8a831b;}.cls-57{fill:#e9e861;}.cls-58,.cls-59{fill:#00aeef;}.cls-60{fill:#fff;}.cls-61{fill:#00539f;}</style><clipPath id="clip-path" transform="translate(-139 -327)"><path class="cls-1" d="M398.78,413H180.44c5.4-1.87,14-7.77,27.91-15.24,1.41.05,3.83,1.68,4.3,1.47a165.12,165.12,0,0,0,17.4-8.44c10.13-5.44,25.76-16.07,25.76-16.07l5.82,6.8a36.57,36.57,0,0,1,6.52-2.32c.79.83,1.33,1.49,2.13,2.46a157.45,157.45,0,0,0,17.65-6.36c9.5-4.42,22.57-14.57,22.57-14.57s23.77,20.84,41,31.07,45.31,20.45,47.24,21.19Z"/></clipPath></defs><title>tws-logo</title><polygon class="cls-2" points="10.51 109.65 5 109.65 18.97 140.06 27.74 118.9 36.51 140.06 50.6 109.65 45.09 109.65 36.63 128.88 27.74 107.47 18.91 128.88 10.51 109.65 10.51 109.65"/><path class="cls-3" d="M211,440.33c6,0,9.56,4.6,9.56,10.29s-3.27,10.76-9.5,10.76c-6,0-9.31-5.26-9.31-10.83,0-5.32,3.63-10.22,9.25-10.22Zm14.15-3.68h-4.83v4.05h-.12a12.28,12.28,0,0,0-9.74-4.84c-8.53,0-13.67,6.95-13.67,15.06,0,7.86,5.26,14.93,13.61,14.93a12,12,0,0,0,9.8-4.71h.12v3.93h4.83V436.65Z" transform="translate(-139 -327)"/><polygon class="cls-2" points="105 114.12 110.08 114.12 110.08 109.65 105 109.65 105 99.43 100.17 99.43 100.17 109.65 97.2 109.65 97.2 114.12 100.17 114.12 100.17 138.07 105 138.07 105 114.12 105 114.12"/><path class="cls-3" d="M283,451.88c.49-8.46-4.35-16-13.48-16-8.89,0-13.79,6.95-13.79,15.36,0,8.16,5.44,14.63,13.91,14.63a14.35,14.35,0,0,0,13.12-8l-4.11-2.36c-1.88,3.39-4.54,5.87-8.65,5.87-5.5,0-9.25-4.24-9.31-9.5Zm-22.07-4.11a9,9,0,0,1,8.65-7.44,8.67,8.67,0,0,1,8.34,7.44Z" transform="translate(-139 -327)"/><path class="cls-2" d="M299.06,436.65h-4.83v28.42h4.83V450.86c0-3.69.25-10.53,5.57-10.53a4.74,4.74,0,0,1,2.9,1.27l2.3-4.41a8.51,8.51,0,0,0-4.36-1.33c-3.14,0-4.59,1.63-6.29,3.87h-.12v-3.08Z" transform="translate(-139 -327)"/><path class="cls-2" d="M335.1,441.12a8.59,8.59,0,0,0-7.56-5.26c-4.59,0-8.46,3.26-8.46,8,0,9,12.82,6.78,12.82,13.12a4.33,4.33,0,0,1-4.6,4.36c-3.2,0-4.59-1.88-5.8-4.54l-4.3,1.82a10.23,10.23,0,0,0,10,7.19,9.3,9.3,0,0,0,9.62-9.25c0-4.78-3.27-6.77-6.59-8.16s-6.6-2.36-6.6-5a3.45,3.45,0,0,1,3.51-3.15,4.52,4.52,0,0,1,3.87,2.91l4.05-2.12Z" transform="translate(-139 -327)"/><path class="cls-2" d="M348.52,415.18v49.89h4.83V451.58c0-5.08.43-11.25,7.08-11.25,5.62,0,6,4.12,6,8.71v16h4.83V448.2c0-6.66-1.81-12.34-9.67-12.34a9.55,9.55,0,0,0-8.11,4.23l-.12-.12V415.18Z" transform="translate(-139 -327)"/><path class="cls-3" d="M410,451.88c.48-8.46-4.36-16-13.49-16-8.89,0-13.79,6.95-13.79,15.36,0,8.16,5.45,14.63,13.91,14.63a14.36,14.36,0,0,0,13.13-8l-4.12-2.36c-1.87,3.39-4.53,5.87-8.64,5.87-5.51,0-9.26-4.24-9.32-9.5Zm-22.07-4.11a9,9,0,0,1,8.64-7.44,8.68,8.68,0,0,1,8.35,7.44Z" transform="translate(-139 -327)"/><path class="cls-3" d="M433.25,440.33c6,0,9.56,4.6,9.56,10.29s-3.27,10.76-9.5,10.76c-6,0-9.31-5.26-9.31-10.83,0-5.32,3.63-10.22,9.25-10.22Zm9.32,24.74h4.83V415.18h-4.83V440.7h-.12a12.28,12.28,0,0,0-9.74-4.84c-8.53,0-13.67,6.95-13.67,15.06,0,7.86,5.26,14.93,13.61,14.93a12.13,12.13,0,0,0,9.8-4.71h.12v3.93Z" transform="translate(-139 -327)"/><g class="cls-4"><rect class="cls-5" x="41.43" y="33.82" width="218.4" height="0.96"/><rect class="cls-6" x="41.43" y="34.82" width="218.4" height="0.96"/><rect class="cls-7" x="41.43" y="35.83" width="218.4" height="0.96"/><rect class="cls-8" x="41.43" y="36.83" width="218.4" height="0.96"/><rect class="cls-9" x="41.43" y="37.84" width="218.4" height="0.96"/><rect class="cls-10" x="41.43" y="38.84" width="218.4" height="0.96"/><rect class="cls-11" x="41.43" y="39.85" width="218.4" height="0.96"/><rect class="cls-12" x="41.43" y="40.85" width="218.4" height="0.96"/><rect class="cls-13" x="41.43" y="41.86" width="218.4" height="0.96"/><rect class="cls-14" x="41.43" y="42.86" width="218.4" height="0.96"/><rect class="cls-15" x="41.43" y="43.87" width="218.4" height="0.96"/><rect class="cls-16" x="41.43" y="44.87" width="218.4" height="0.96"/><rect class="cls-17" x="41.43" y="45.88" width="218.4" height="0.96"/><rect class="cls-18" x="41.43" y="46.88" width="218.4" height="0.96"/><rect class="cls-19" x="41.43" y="47.89" width="218.4" height="0.96"/><rect class="cls-20" x="41.43" y="48.9" width="218.4" height="0.96"/><rect class="cls-21" x="41.43" y="49.9" width="218.4" height="0.96"/><rect class="cls-22" x="41.43" y="50.91" width="218.4" height="0.96"/><rect class="cls-23" x="41.43" y="51.91" width="218.4" height="0.96"/><rect class="cls-24" x="41.43" y="52.92" width="218.4" height="0.96"/><rect class="cls-25" x="41.43" y="53.92" width="218.4" height="0.96"/><rect class="cls-26" x="41.43" y="54.93" width="218.4" height="0.96"/><rect class="cls-27" x="41.43" y="55.93" width="218.4" height="0.96"/><rect class="cls-28" x="41.43" y="56.94" width="218.4" height="0.96"/><rect class="cls-29" x="41.43" y="57.94" width="218.4" height="0.96"/><rect class="cls-30" x="41.43" y="58.95" width="218.4" height="0.96"/><rect class="cls-31" x="41.43" y="59.95" width="218.4" height="0.96"/><rect class="cls-32" x="41.43" y="60.96" width="218.4" height="0.96"/><rect class="cls-33" x="41.43" y="61.96" width="218.4" height="0.96"/><rect class="cls-34" x="41.43" y="62.97" width="218.4" height="0.96"/><rect class="cls-35" x="41.43" y="63.97" width="218.4" height="0.96"/><rect class="cls-36" x="41.43" y="64.98" width="218.4" height="0.96"/><rect class="cls-37" x="41.43" y="65.98" width="218.4" height="0.96"/><rect class="cls-38" x="41.43" y="66.99" width="218.4" height="0.96"/><rect class="cls-39" x="41.43" y="67.99" width="218.4" height="0.96"/><rect class="cls-40" x="41.43" y="69" width="218.4" height="0.96"/><rect class="cls-41" x="41.43" y="70.01" width="218.4" height="0.96"/><rect class="cls-42" x="41.43" y="71.01" width="218.4" height="0.96"/><rect class="cls-43" x="41.43" y="72.02" width="218.4" height="0.96"/><rect class="cls-44" x="41.43" y="73.02" width="218.4" height="0.96"/><rect class="cls-45" x="41.43" y="74.03" width="218.4" height="0.96"/><rect class="cls-46" x="41.43" y="75.03" width="218.4" height="0.96"/><rect class="cls-47" x="41.43" y="76.04" width="218.4" height="0.96"/><rect class="cls-48" x="41.43" y="77.04" width="218.4" height="0.96"/><rect class="cls-49" x="41.43" y="78.05" width="218.4" height="0.96"/><rect class="cls-50" x="41.43" y="79.05" width="218.4" height="0.96"/><rect class="cls-51" x="41.43" y="80.06" width="218.4" height="0.96"/><rect class="cls-52" x="41.43" y="81.06" width="218.4" height="0.96"/><rect class="cls-53" x="41.43" y="82.07" width="218.4" height="0.96"/><rect class="cls-54" x="41.43" y="83.07" width="218.4" height="0.96"/><rect class="cls-55" x="41.43" y="84.08" width="218.4" height="0.96"/><rect class="cls-56" x="41.43" y="85.08" width="218.4" height="0.96"/></g><path class="cls-57" d="M310.5,360.8s-13,9.23-18.25,12.18c-6.4,3.56-22.19,8.51-22.19,8.51a19.2,19.2,0,0,0,2.78,3.14c1.55,1.36,3.62,3.33,3.62,3.33S290.69,382,298.24,376,310.5,360.8,310.5,360.8Z" transform="translate(-139 -327)"/><path class="cls-57" d="M255.77,374.88s-12.61,11.7-21,18.77c-4.54,3.81-5.75,5.5-11.8,9.58,0,0-2.68-1.63-10.58-3.93,6.5-3.33,6.23-3.28,15.27-8.32,9.22-5.14,28.14-16.1,28.14-16.1Z" transform="translate(-139 -327)"/><polygon class="cls-58" points="294.86 105.84 11.21 105.84 21.19 99.36 284.3 99.36 294.86 105.84 294.86 105.84"/><polygon class="cls-58" points="281.38 97.06 25.69 97.06 32.38 92.3 273.69 92.3 281.38 97.06 281.38 97.06"/><polygon class="cls-58" points="266.89 89.58 35.05 89.58 41.51 86.05 259.72 86 266.89 89.58 266.89 89.58"/><path class="cls-59" d="M276.55,387.9a42.67,42.67,0,0,0,7.22,6.09c3.21,1.88,6.39,7.17,3.62,8.94s-9.13,7.18-9.68,10.06c-.32,1.65,3.22,3.05,3.22,3.05h13.93s-5.59-1.44-6.36-3.1-1.28-1.84-1.55-3.2c-.64-3.18,2.87-5.37,3.43-7.58a7.53,7.53,0,0,0-4.46-8.78,78.92,78.92,0,0,1-9.37-5.48Z" transform="translate(-139 -327)"/><path class="cls-58" d="M314.41,415.55c2.56-2.91,2.59-5.34,2.59-9,0-4.57-.64-6.31-3.87-9.54-2.28-2.28-3.1-1.74-5.69-3.63-1.43-1-4.43-1.61-4.43-3.39,0-.75,1.09-1.75,1.76-2.07,1.63-.82,2.44-1.1,2.44-2.93a4.17,4.17,0,0,0-2.33-4.2,23.87,23.87,0,0,0-6.55-2.92,9.41,9.41,0,0,0-2.65,0,20.67,20.67,0,0,1,6.63,2.56c2.12,1.23,4.31,2.25,4.31,4.72,0,2.83-5.51,1.9-5.51,4.72,0,2,1.84,2.71,3.64,3.61a29.47,29.47,0,0,1,6.76,4.08c3.52,2.91,4.3,7.3,2.81,11.79-.95,2.84-1.33,3.79-4.74,6.06l4.83.12Z" transform="translate(-139 -327)"/><path class="cls-59" d="M249.85,397.58c0,1.73,1,2.7,2.26,3.66h-4a5.29,5.29,0,0,1-.83-2.93c0-3,2.41-4.33,5.11-5.67s4.4-1.75,7.21-2.86c2.15-.86,4.37-1.75,4.37-4.07a4.46,4.46,0,0,0-1.25-3.31c-.43-.3-.88-.59-1.32-.92a4.78,4.78,0,0,1,1.32.92c1.21.84,2.2,1.66,2.2,3.24,0,2.93-2.81,4-5.51,5.13-2.27.94-3.45,1.77-5.67,2.83-2,.95-3.9,1.8-3.9,4Z" transform="translate(-139 -327)"/><path class="cls-59" d="M214.35,415.62c-.71-.38-2.82-3.21-2.82-4,0-1.6,1.63-2.17,3.13-2.65,4.13-1.38,8.54-.74,10.36-3.44.53-.79-.8-1.74-2-2.35a1.88,1.88,0,0,1,1.08,1.9c-.19,1.9-5.67,1.81-9.37,2.69-6.57,1.55-8.42,4.37-9.58,7.83l9.22,0Z" transform="translate(-139 -327)"/><polygon class="cls-60" points="203.4 78.26 211.56 72.47 217.67 75.18 217.67 72.26 219.62 72.26 219.62 76.16 223.73 78.26 220.56 78.26 220.56 86.02 205.14 86.02 205.14 78.26 203.4 78.26 203.4 78.26"/><polygon class="cls-60" points="209.47 88.09 214.36 88.09 214.36 105.84 209.47 105.84 209.47 88.09 209.47 88.09"/><polygon class="cls-60" points="100.2 99.36 104.99 99.36 104.99 105.84 100.2 105.84 100.2 99.36 100.2 99.36"/><polygon class="cls-60" points="104.08 74.33 120.17 74.33 120.17 86.02 104.08 86.02 104.08 74.33 104.08 74.33"/><polygon class="cls-60" points="151.91 72.43 172.72 72.43 172.72 86.02 151.91 86.02 151.91 72.43 151.91 72.43"/><polygon class="cls-60" points="122.5 65.04 138.58 65.04 138.58 86.2 122.5 86.2 122.5 65.04 122.5 65.04"/><polygon class="cls-60" points="89.19 80.8 104.79 80.8 104.79 86.02 89.19 86.02 89.19 80.8 89.19 80.8"/><polygon class="cls-60" points="191.46 71.31 201.48 71.31 201.44 86.06 178.67 86.12 178.67 64.25 191.46 64.25 191.46 71.31 191.46 71.31"/><path class="cls-61" d="M141.75,332.45q6.83-.29,14.21-.29,4.93,0,10.08.15,12.81.29,24,1c.79.5,1.53,1.73,2.19,3.7a26.59,26.59,0,0,1,1.05,4.89c.07.84.1,1.63.1,2.37q0,4.89-2.1,4.66-6.48-2.81-19.6-3.55c0,.39,0,1-.1,1.78-1,4.49-1.63,18-1.89,24.5q-.15,3.4-.15,6.59c0,4,.16,23.75.5,27.25a28.93,28.93,0,0,1,1,6.74,11.81,11.81,0,0,1-.29,2.74q-1,4.14-3.35,4.14a3.52,3.52,0,0,1-1.34-.29q-3.39-1.49-3.54-9.26a38,38,0,0,0,.79-8.36c0-1.78-.06-19.7-.2-21.77-.46-5.88-1-22-1.74-32.28a13.88,13.88,0,0,0-.15-2q-8.62,0-19.45,1a1.8,1.8,0,0,1-.7.15q-2.15,0-2.05-5.7.15-6.59,2.75-8.22Z" transform="translate(-139 -327)"/><path class="cls-61" d="M224.77,388.87a11.66,11.66,0,0,1-.2,2.3l-7.62,4a9.29,9.29,0,0,1-1.45-2.52,22,22,0,0,1-1.55-8.88,84.13,84.13,0,0,0,2.1-13.32c.1-1,.15-2.17.15-3.41A139.68,139.68,0,0,0,214,344.71l.1-4.29A6.5,6.5,0,0,1,215,337q3-4.87,6.33-4.88a4.64,4.64,0,0,1,1.8.37q2.9,1.19,2.89,6.36a31.3,31.3,0,0,1-.65,5.85c-.63,2.42-1.11,8.13-1.44,11.14l40.55.82c-.17-2-.39-8-.65-12a17.8,17.8,0,0,0-.9-5.7,6.73,6.73,0,0,1-.45-2.22,2.69,2.69,0,0,1,.75-2q3.5-3.48,6.18-3.48a3.81,3.81,0,0,1,1.8.45q2.49,1.26,2.49,8.58c0,1.34-.06,2.79-.2,4.37-1,4.44-1.56,12.92-1.79,19.44q-.15,3.33-.15,6.36c0,1.28.38,8.47.41,9.69l-3.51-2.38-3.09,1.4c0-2.83.19-9.47.1-11.45a134.54,134.54,0,0,0-21.14-2.3q-6.74-.21-21.25-.07c0,4.64.2,12.83.6,16.58a26.13,26.13,0,0,1,1.09,6.89Z" transform="translate(-139 -327)"/><path class="cls-61" d="M315.52,363.46c-1.7-1.26-3.75-3.16-4.72-4a18.2,18.2,0,0,0-3.75,1.87c-.46-5.43-.23-5.77-.82-14.26q0-.6-.15-2.07c-5.66.1-1.14.44-8.46,1a1.72,1.72,0,0,1-.69.15c-1.43,0-2.12-1.9-2.05-5.7a19.13,19.13,0,0,1,.65-4.66,6.1,6.1,0,0,1,2.09-3.56c4.36-.14.88-.22,5.57-.22,3.49,0,4.08,0,7.77.08,8.55.24,4.53.61,11.94,1.11.8.49,1.53,1.72,2.2,3.7a26.66,26.66,0,0,1,1,4.81,20.54,20.54,0,0,1,.14,2.44c0,3.21-.71,2.74-2.14,2.59-4.26-1.82,1.21-1-7.6-1.55,0,.34,0,1-.1,1.85-1,4.44-.66,9.8-.93,16.37Z" transform="translate(-139 -327)"/><path class="cls-61" d="M349.86,387.66l0,1.21-6.55-4.09q.38-3.11.62-6.75c.07-1,.1-2.09.1-3.33,0-4.93-.58-22.4-1.74-30.39,0-4.05.26-6.61.8-7.7q2.13-4.44,4.73-4.89c1.67-.24,2.8,1,3.39,3.71,4.59,3.8,11.68,21.35,21.25,28.65,9.41,7.16,16.53,20.75,21.25,24.7l-1.55-32.47c0-1.83-.23-16.7-.8-18.63a6.9,6.9,0,0,1-.39-2.14,3,3,0,0,1,.69-2.08q3.19-3.56,5.54-3.55a2.91,2.91,0,0,1,1.55.44c1.46.84,2.19,3.71,2.19,8.59,0,1.33-.05,15.79-.15,17.37a104.53,104.53,0,0,0-1.59,16.51c-.11,2.07-.15,4.09-.15,6.07q0,6.28.49,11.77a50.68,50.68,0,0,1,.85,5.33,9.78,9.78,0,0,1-.3,4.07q-1.44,4.51-4.59,4.44c-2.09-.05-14.31-17.2-23.49-24.65-7.28-5.58-14.56-23.18-21.84-28.81-.47,4.3-.73,19.94-.8,24.92a96.65,96.65,0,0,0,.45,11.7Z" transform="translate(-139 -327)"/><path class="cls-61" d="M422.89,353.87c.63.44,1.15.79,1.55,1q8.13-2.67,17.41-9.7A187,187,0,0,0,461,328.55a4,4,0,0,1,6.78.82,7.88,7.88,0,0,1,1.2,4.14,5.11,5.11,0,0,1-2,4.08q-5.43,7.77-15.91,14c-3.92,2.32-12.66,8.07-20.6,11.48,11.19,5.44,24.07,40.84,39.28,50.12a10.49,10.49,0,0,1,1.6,5.33,8.11,8.11,0,0,1-.9,3.7q-2.14,4.29-8.23,3.77c-5.42-2.86-7.07-22.52-15.68-34.56-7.62-10.68-23.95-23.63-23.95-23.63q.11,4.14.4,7.7c.53,2.61.8,24.88.8,26.81a14.41,14.41,0,0,1-.4,3.62c-.66,2.52-1.58,3.9-2.74,4.15q-2.74.58-4.19-4.59c-.7-2.52-1-25.28-1-28.29a103.26,103.26,0,0,0,1.65-13.25c.06-1,.1-2.17.1-3.41a141.59,141.59,0,0,0-1.75-19.39c0-1.33.05-2.64.05-3.92a10.72,10.72,0,0,1,.8-3.71c1.6-3.25,3.22-4.88,4.89-4.88a2.9,2.9,0,0,1,1.39.37q2.3,1.19,2.3,6.36a65.31,65.31,0,0,1-.9,9.18c-.66,4.49-1.05,7.6-1.15,9.33Z" transform="translate(-139 -327)"/></svg>